<svg id="l_d_2524" xmlns="http://www.w3.org/2000/svg" xmlns:xlink="http://www.w3.org/1999/xlink" viewBox="0 0 35 35" width="35" height="35" preserveAspectRatio="xMidYMid meet" style="width: 100%; height: 100%; transform: translate3d(0px, 0px, 0px); content-visibility: visible;"><defs id="l_d_2525"><clipPath id="__lottie_element_1076"><rect id="l_d_2528" width="35" height="35" x="0" y="0"></rect></clipPath><g id="__lottie_element_1081"><g id="l_d_2537" transform="matrix(1,0,0,1,2.6220006942749023,-0.2480010986328125)" opacity="1" style="display: block;"><path id="l_d_2542" fill="rgb(255,0,0)" fill-opacity="1" d=" M5,32 C5,32 5,5.96 5,5.96 C5,5.43 5.43,5 5.96,5 C5.96,5 20.05,5 20.05,5 C20.58,5 21.01,5.43 21.01,5.96 C21.01,5.96 21.01,32 21.01,32 M18,19 C18,19.55 17.56,20 17,20 C16.45,20 16,19.55 16,19 C16,18.45 16.45,18 17,18 C17.56,18 18,18.45 18,19z"></path><g id="l_d_2543" opacity="1" transform="matrix(1,0,0,1,13.005000114440918,18.499000549316406)"><path id="l_d_2544" stroke-linecap="butt" stroke-linejoin="miter" fill-opacity="0" stroke-miterlimit="10" stroke="rgb(34,34,34)" stroke-opacity="1" stroke-width="2" d=" M-8.005000114440918,13.49899959564209 C-8.005000114440918,13.49899959564209 -8.005000114440918,-12.543000221252441 -8.005000114440918,-12.543000221252441 C-8.005000114440918,-13.071000099182129 -7.577000141143799,-13.49899959564209 -7.047999858856201,-13.49899959564209 C-7.047999858856201,-13.49899959564209 7.048999786376953,-13.49899959564209 7.048999786376953,-13.49899959564209 C7.577000141143799,-13.49899959564209 8.005000114440918,-13.071000099182129 8.005000114440918,-12.543000221252441 C8.005000114440918,-12.543000221252441 8.005000114440918,13.49899959564209 8.005000114440918,13.49899959564209"></path></g><g id="l_d_2545" opacity="1" transform="matrix(1,0,0,1,17.003000259399414,18.99799919128418)"><path id="l_d_2546" fill="rgb(34,34,34)" fill-opacity="1" d=" M1,0 C1,0.5519999861717224 0.5519999861717224,1 0,1 C-0.5519999861717224,1 -1,0.5519999861717224 -1,0 C-1,-0.5519999861717224 -0.5519999861717224,-1 0,-1 C0.5519999861717224,-1 1,-0.5519999861717224 1,0z"></path></g></g></g><filter id="__lottie_element_1087" filterUnits="objectBoundingBox" x="0%" y="0%" width="100%" height="100%"><feComponentTransfer id="l_d_2556" in="SourceGraphic"><feFuncA id="l_d_2557" type="table" tableValues="1.0 0.0"></feFuncA></feComponentTransfer></filter><mask id="__lottie_element_1081_2" mask-type="alpha"><g id="l_d_2554" filter="url(#__lottie_element_1087)"><rect id="l_d_2558" width="35" height="35" x="0" y="0" fill="#ffffff" opacity="0"></rect><use id="l_d_2559" xlink:href="#__lottie_element_1081"></use></g></mask><g id="__lottie_element_1081"><g id="l_d_2537" transform="matrix(1,0,0,1,2.6220006942749023,-0.2480010986328125)" opacity="1" style="display: block;"><path id="l_d_2542" fill="rgb(255,0,0)" fill-opacity="1" d=" M5,32 C5,32 5,5.96 5,5.96 C5,5.43 5.43,5 5.96,5 C5.96,5 20.05,5 20.05,5 C20.58,5 21.01,5.43 21.01,5.96 C21.01,5.96 21.01,32 21.01,32 M18,19 C18,19.55 17.56,20 17,20 C16.45,20 16,19.55 16,19 C16,18.45 16.45,18 17,18 C17.56,18 18,18.45 18,19z"></path><g id="l_d_2543" opacity="1" transform="matrix(1,0,0,1,13.005000114440918,18.499000549316406)"><path id="l_d_2544" stroke-linecap="butt" stroke-linejoin="miter" fill-opacity="0" stroke-miterlimit="10" stroke="rgb(34,34,34)" stroke-opacity="1" stroke-width="2" d=" M-8.005000114440918,13.49899959564209 C-8.005000114440918,13.49899959564209 -8.005000114440918,-12.543000221252441 -8.005000114440918,-12.543000221252441 C-8.005000114440918,-13.071000099182129 -7.577000141143799,-13.49899959564209 -7.047999858856201,-13.49899959564209 C-7.047999858856201,-13.49899959564209 7.048999786376953,-13.49899959564209 7.048999786376953,-13.49899959564209 C7.577000141143799,-13.49899959564209 8.005000114440918,-13.071000099182129 8.005000114440918,-12.543000221252441 C8.005000114440918,-12.543000221252441 8.005000114440918,13.49899959564209 8.005000114440918,13.49899959564209"></path></g><g id="l_d_2545" opacity="1" transform="matrix(1,0,0,1,17.003000259399414,18.99799919128418)"><path id="l_d_2546" fill="rgb(34,34,34)" fill-opacity="1" d=" M1,0 C1,0.5519999861717224 0.5519999861717224,1 0,1 C-0.5519999861717224,1 -1,0.5519999861717224 -1,0 C-1,-0.5519999861717224 -0.5519999861717224,-1 0,-1 C0.5519999861717224,-1 1,-0.5519999861717224 1,0z"></path></g></g></g></defs><g id="l_d_2526" clip-path="url(#__lottie_element_1076)"><g id="l_d_2566" transform="matrix(1,0,0,1,17.75,18.75)" opacity="1" style="display: block;"><g id="l_d_2570" opacity="1" transform="matrix(1,0,0,1,0,0)"><path id="l_d_2571" stroke-linecap="butt" stroke-linejoin="miter" fill-opacity="0" stroke-miterlimit="4" stroke="#222222" stroke-opacity="1" stroke-width="2px" d=" M5.875,-13 C5.875,-13 5.875,13.281000137329102 5.875,13.281000137329102"></path></g></g><g id="l_d_2560" transform="matrix(1,0,0,1,3.625,31.749000549316406)" opacity="1" style="display: block;"><g id="l_d_2564" opacity="1" transform="matrix(1,0,0,1,0,0)"><path id="l_d_2565" stroke-linecap="butt" stroke-linejoin="miter" fill-opacity="0" stroke-miterlimit="10" stroke="#222222" stroke-opacity="1" stroke-width="2px" d=" M1,1 C1,1 27,1 27,1"></path></g></g><g id="l_d_2548" mask="url(#__lottie_element_1081_2)" style="display: block;"><g id="l_d_2547" transform="matrix(1,0,0,1,2.6220006942749023,-0.2480010986328125)" opacity="1"><g id="l_d_2551" opacity="1" transform="matrix(1,0,0,1,14.979999542236328,18.499000549316406)"><path id="l_d_2552" stroke-linecap="butt" stroke-linejoin="miter" fill-opacity="0" stroke-miterlimit="10" stroke="#222222" stroke-opacity="1" stroke-width="2px" d=" M-9.979999542236328,13.49899959564209 C-9.979999542236328,13.49899959564209 -9.979999542236328,-12.543000221252441 -9.979999542236328,-12.543000221252441 C-9.979999542236328,-13.071000099182129 -9.552000045776367,-13.49899959564209 -9.02299976348877,-13.49899959564209 C-9.02299976348877,-13.49899959564209 9.02299976348877,-13.49899959564209 9.02299976348877,-13.49899959564209 C9.550999641418457,-13.49899959564209 9.979999542236328,-13.071000099182129 9.979999542236328,-12.543000221252441 C9.979999542236328,-12.543000221252441 9.979999542236328,13.49899959564209 9.979999542236328,13.49899959564209"></path></g></g></g><g id="l_d_2529" transform="matrix(1,0,0,1,2.6220006942749023,-0.2480010986328125)" opacity="1" style="display: block;"><g id="l_d_2533" opacity="1" transform="matrix(1,0,0,1,13.005000114440918,18.499000549316406)"><path id="l_d_2534" stroke-linecap="butt" stroke-linejoin="miter" fill-opacity="0" stroke-miterlimit="10" stroke="#222222" stroke-opacity="1" stroke-width="2px" d=" M-8.005000114440918,13.49899959564209 C-8.005000114440918,13.49899959564209 -8.005000114440918,-12.543000221252441 -8.005000114440918,-12.543000221252441 C-8.005000114440918,-13.071000099182129 -7.577000141143799,-13.49899959564209 -7.047999858856201,-13.49899959564209 C-7.047999858856201,-13.49899959564209 7.048999786376953,-13.49899959564209 7.048999786376953,-13.49899959564209 C7.577000141143799,-13.49899959564209 8.005000114440918,-13.071000099182129 8.005000114440918,-12.543000221252441 C8.005000114440918,-12.543000221252441 8.005000114440918,13.49899959564209 8.005000114440918,13.49899959564209"></path></g><g id="l_d_2535" opacity="1" transform="matrix(1,0,0,1,17.003000259399414,18.99799919128418)"><path id="l_d_2536" fill="#222222" fill-opacity="1" d=" M1,0 C1,0.5519999861717224 0.5519999861717224,1 0,1 C-0.5519999861717224,1 -1,0.5519999861717224 -1,0 C-1,-0.5519999861717224 -0.5519999861717224,-1 0,-1 C0.5519999861717224,-1 1,-0.5519999861717224 1,0z"></path></g></g></g></svg>